<svg version="1.2" xmlns="http://www.w3.org/2000/svg" viewBox="0 0 160 50" width="160" height="50"><style>.a{fill:#ff620d}</style><path fill-rule="evenodd" d="m3 27v-3.8l148-0.2v3.8z"/><path class="a" d="m23.8 13.4l-2.9 23.6h-4.8l1.2-9.6h-10.2l-1.2 9.6h-4.8l2.9-23.6h4.8l-1.2 9.5h10.2l1.2-9.5zm9.1 14.9q-0.1 0.2-0.1 0.5 0 1 0.6 1.9 0.5 0.9 1.5 1.5 0.9 0.5 2.1 0.5 1.3 0 2.4-0.6 1.2-0.6 2-1.7 0.8-1 0.9-2.1l1.9-14.9h4.8l-1.9 15q-0.3 2.5-1.8 4.6-1.5 2-3.9 3.1-2.3 1.2-4.9 1.2-2.5 0-4.4-1-1.9-1-3-2.8-1.1-1.7-1.1-4 0-0.3 0.1-1.1l1.8-15h4.8zm38.7-14.8h4.7l-3 24.5h-0.2l-14.6-14.9-1.6 14h-4.7l3-24.5h0.2l14.6 15.1zm9.2 0h15.8l-0.6 4.6h-5.6l-2.3 19h-4.8l2.3-19h-5.4zm20.3 0h16.1l-0.5 4.3h-11.3l-0.6 5.3h9.9l-0.5 4.4h-10l-0.6 5.1h11.7l-0.5 4.4h-16.6zm36.8 8q-0.3 2.1-1.4 4.1-1.1 1.9-3.2 2.9l4.4 8.6h-5.4l-4-7.5h-3.1l-0.9 7.5h-4.7l2.9-23.6h7.1q4.1 0 6.2 1.9 2.1 1.8 2.1 4.9 0 0.3 0 1.2zm-11.3-3.5l-0.9 7.1h3.3q1.9 0 2.9-1.1 1-1.1 1.2-2.4 0-0.1 0-0.6 0-1.2-0.7-2.1-0.7-0.9-2.5-0.9zm29.9 1.6q-3.1-2-5.4-2-2.9 0-3.2 2.3-0.2 1.1 1 2 1.1 0.9 3.1 1.8 2.2 1 3.5 2.4 1.3 1.4 1.3 3.8 0 0.8-0.1 1.1-0.2 1.8-1.3 3.2-1 1.4-2.8 2.3-1.7 0.8-4 0.8-2.3 0-4.5-0.8-2.2-0.7-4-2.2l2.5-3.5q1.1 1 2.8 1.7 1.6 0.7 2.9 0.7 1.4 0 2.4-0.6 1-0.5 1.2-1.8 0.2-1.9-3.1-3.4-1.7-0.8-2.9-1.6-1.2-0.7-2-1.9-0.9-1.3-0.9-3 0-0.3 0.1-1 0.3-3 2.5-4.7 2.3-1.8 5.6-1.7 2.6 0.2 4.3 0.9 1.7 0.6 3.2 1.8z"/></svg>